<svg width="33" height="33" viewBox="0 0 33 33" fill="none" xmlns="http://www.w3.org/2000/svg">
<path d="M9.955 2.75H7.3425C4.33125 2.75 2.75 4.33125 2.75 7.32875V9.94125C2.75 12.9388 4.33125 14.52 7.32875 14.52H9.94125C12.9388 14.52 14.52 12.9388 14.52 9.94125V7.32875C14.5338 4.33125 12.9525 2.75 9.955 2.75Z" fill="#222831"/>
<path d="M25.6712 2.75H23.0587C20.0612 2.75 18.48 4.33125 18.48 7.32875V9.94125C18.48 12.9388 20.0612 14.52 23.0587 14.52H25.6712C28.6687 14.52 30.25 12.9388 30.25 9.94125V7.32875C30.25 4.33125 28.6687 2.75 25.6712 2.75Z" fill="#222831"/>
<path d="M25.6712 18.4662H23.0587C20.0612 18.4662 18.48 20.0475 18.48 23.045V25.6575C18.48 28.655 20.0612 30.2362 23.0587 30.2362H25.6712C28.6687 30.2362 30.25 28.655 30.25 25.6575V23.045C30.25 20.0475 28.6687 18.4662 25.6712 18.4662Z" fill="#222831"/>
<path d="M9.955 18.4662H7.3425C4.33125 18.4662 2.75 20.0475 2.75 23.045V25.6575C2.75 28.6687 4.33125 30.25 7.32875 30.25H9.94125C12.9388 30.25 14.52 28.6687 14.52 25.6712V23.0587C14.5338 20.0475 12.9525 18.4662 9.955 18.4662Z" fill="#222831"/>
</svg>
